<svg width="96" height="96" viewBox="0 0 96 96" fill="none" xmlns="http://www.w3.org/2000/svg">
<path fill-rule="evenodd" clip-rule="evenodd" d="M0 48C0 42.2696 1.00417 36.7737 2.84614 31.6787C3.17355 32.2245 3.58373 32.717 4.0767 33.1562C5.56345 34.4631 7.5947 35.3958 10.1705 35.9545L13.0682 36.5795C14.1477 36.8163 15.0047 37.072 15.6392 37.3466C16.2737 37.6117 16.7282 37.9148 17.0028 38.2557C17.2869 38.5871 17.4337 38.9754 17.4432 39.4205C17.4337 39.8939 17.2822 40.3153 16.9886 40.6847C16.6951 41.054 16.2642 41.3428 15.696 41.5511C15.1278 41.7595 14.4223 41.8636 13.5795 41.8636C12.5758 41.8636 11.7093 41.7074 10.9801 41.3949C10.2604 41.0824 9.70171 40.6231 9.30398 40.017C8.90625 39.411 8.68371 38.6629 8.63636 37.7727H1.13636C1.14583 40.2064 1.66667 42.2045 2.69886 43.767C3.74053 45.3201 5.19886 46.4706 7.07386 47.2188C8.95833 47.9669 11.1648 48.3409 13.6932 48.3409C16.1553 48.3409 18.2623 47.9953 20.0142 47.304C21.7756 46.6127 23.1297 45.6042 24.0767 44.2784C25.0237 42.9527 25.5019 41.3333 25.5114 39.4205C25.5019 38.3125 25.322 37.2898 24.9716 36.3523C24.6307 35.4148 24.0956 34.572 23.3665 33.8239C22.6373 33.0663 21.6998 32.4081 20.554 31.8494C19.4081 31.2907 18.0303 30.8409 16.4205 30.5L14.0341 29.9886C13.3428 29.8466 12.7462 29.6856 12.2443 29.5057C11.7424 29.3258 11.3305 29.1269 11.0085 28.9091C10.6866 28.6818 10.4498 28.4309 10.2983 28.1562C10.1563 27.8722 10.0947 27.5549 10.1136 27.2045C10.1231 26.7784 10.2509 26.3996 10.4972 26.0682C10.7434 25.7367 11.1222 25.4763 11.6335 25.2869C12.1544 25.0881 12.822 24.9886 13.6364 24.9886C14.9148 24.9886 15.8665 25.2538 16.4915 25.7841C17.1259 26.3144 17.4811 27.053 17.5568 28H25.1136C25.1042 26.0966 24.6307 24.4347 23.6932 23.0142C22.7652 21.5843 21.4441 20.4763 19.7301 19.6903C18.0161 18.9044 15.9848 18.5114 13.6364 18.5114C12.2673 18.5114 10.9903 18.6488 9.8056 18.9237C18.5747 7.42229 32.4206 0 48 0C63.5728 0 77.4136 7.41602 86.1833 18.9091H83.1072L76.3459 35.3864H76.005L69.2436 18.9091H59.4141V48H67.1413V31.0682H67.3686L73.8459 47.7727H78.505L84.9822 31.1818H85.2095V48H92.9368V31.0904C94.9168 36.3497 96 42.0484 96 48C96 54.6049 94.666 60.8983 92.2526 66.6253C91.897 66.3048 91.5048 66.0235 91.076 65.7812C90.0533 65.1941 88.9169 64.8769 87.6669 64.8295V64.5455C88.7938 64.3182 89.7786 63.911 90.6215 63.3239C91.4643 62.7273 92.1177 61.9886 92.5817 61.108C93.0552 60.2273 93.2919 59.2519 93.2919 58.1818C93.2919 56.7045 92.9037 55.4214 92.1271 54.3324C91.3601 53.2434 90.219 52.4006 88.7038 51.804C87.1982 51.2074 85.3374 50.9091 83.1215 50.9091H70.5078V80H83.7777C74.9886 89.82 62.216 96 48 96C33.784 96 21.0114 89.82 12.2223 80H16.8182L21.7614 63.75H21.9886L26.9318 80H34.4886L43.0682 50.9091H34.2614L30.2841 68.8636H30.0568L25.3409 50.9091H18.4091L13.6932 68.8068H13.4659L9.48864 50.9091H0.681818L7.36041 73.5544C2.69765 66.1547 0 57.3924 0 48ZM47.4077 28.5114C47.2846 28.0095 47.0904 27.5691 46.8253 27.1903C46.5601 26.8021 46.2287 26.4754 45.831 26.2102C45.4427 25.9356 44.9882 25.732 44.4673 25.5994C43.956 25.4574 43.3925 25.3864 42.777 25.3864C41.4512 25.3864 40.3196 25.7036 39.3821 26.3381C38.4541 26.9725 37.7438 27.8864 37.2514 29.0795C36.7685 30.2727 36.527 31.7121 36.527 33.3977C36.527 35.1023 36.759 36.5606 37.223 37.7727C37.687 38.9848 38.3783 39.9129 39.2969 40.5568C40.2154 41.2008 41.3565 41.5227 42.7202 41.5227C43.9228 41.5227 44.9219 41.3475 45.7173 40.9972C46.5223 40.6468 47.1236 40.1496 47.5213 39.5057C47.8973 38.897 48.0955 38.1868 48.1161 37.375H49.4815L48.1179 37.233C48.1179 37.2806 48.1173 37.328 48.1161 37.375H42.8338V31.75H55.7315V35.7841C55.7315 38.4356 55.1681 40.7036 54.0412 42.5881C52.9238 44.4631 51.3802 45.9025 49.4105 46.9062C47.4503 47.9006 45.2012 48.3977 42.6634 48.3977C39.8319 48.3977 37.3461 47.7964 35.206 46.5938C33.0658 45.3911 31.3944 43.6771 30.1918 41.4517C28.9986 39.2263 28.402 36.5795 28.402 33.5114C28.402 31.1061 28.7666 28.9754 29.4957 27.1193C30.2344 25.2633 31.2571 23.696 32.5639 22.4176C33.8707 21.1297 35.3812 20.1591 37.0952 19.5057C38.8092 18.8428 40.6463 18.5114 42.6065 18.5114C44.33 18.5114 45.9304 18.7576 47.4077 19.25C48.8944 19.733 50.206 20.4242 51.3423 21.3239C52.4882 22.214 53.4115 23.2699 54.1122 24.4915C54.813 25.7131 55.2391 27.053 55.3906 28.5114H47.4077ZM78.4055 73.6932H82.0987C83.4245 73.6932 84.4188 73.447 85.0817 72.9545C85.7446 72.4527 86.076 71.714 86.076 70.7386C86.076 70.0568 85.9197 69.4792 85.6072 69.0057C85.2947 68.5322 84.8497 68.1724 84.272 67.9261C83.7038 67.6799 83.0173 67.5568 82.2124 67.5568H78.4055V73.6932ZM78.4055 62.6705H81.6442C82.3355 62.6705 82.9463 62.5616 83.4766 62.3438C84.0069 62.1259 84.4188 61.8134 84.7124 61.4062C85.0154 60.9896 85.1669 60.483 85.1669 59.8864C85.1669 58.9867 84.8449 58.3002 84.201 57.8267C83.5571 57.3438 82.7427 57.1023 81.7578 57.1023H78.4055V62.6705ZM45.625 80V50.9091H66.5909V57.2727H53.5227V62.2727H65.5114V68.6364H53.5227V73.6364H66.5341V80H45.625Z" fill="#F84018"/>
</svg>
